<svg width="168" height="108" viewBox="0 0 168 108" fill="none" xmlns="http://www.w3.org/2000/svg">
<path d="M40.4111 4.95697C39.7025 5.33508 39.0204 5.7608 38.3695 6.23119C35.2703 8.87135 33.1098 12.4445 32.2116 16.4155C31.5768 19.3097 32.3395 20.8113 34.9732 22.2939C36.309 23.0471 36.9768 24.1508 36.2853 25.6524C35.5937 27.154 34.4332 27.4761 32.9268 26.9598C28.9384 25.605 26.3662 21.536 27.0863 16.7565C28.0668 10.2528 31.2168 4.91434 36.7968 1.20537C38.7342 -0.0783224 40.8279 -0.490431 43.0021 0.731683C45.0958 1.90643 45.4085 3.85329 45.4037 6.01804C45.369 15.3749 45.369 24.7303 45.4037 34.084C45.4037 38.693 47.488 41.3504 51.9169 42.6104C55.2328 43.5578 60.576 40.2846 61.2202 36.9262C61.4428 35.7656 60.8981 35.2398 59.9649 34.5814C58.397 33.529 57.0005 32.2412 55.8249 30.7635C54.5222 29.0298 54.9865 27.2582 56.6065 25.8561C60.1307 22.8055 67.7097 22.706 71.3429 25.6713C73.536 27.4571 73.7492 29.9014 71.7218 31.9193C70.6323 33.0088 69.2018 33.7477 68.1029 34.8324C67.5818 35.344 67.1081 36.3719 67.255 37.0161C68.1502 40.8293 71.7976 43.1362 75.8335 42.6341C77.6434 42.3953 79.3077 41.5156 80.5245 40.1546C81.7412 38.7935 82.4298 37.0414 82.4651 35.2161C82.5314 26.434 82.4651 17.6518 82.4982 8.86963C82.4352 6.88903 82.5223 4.90651 82.7588 2.93907C82.9151 1.99169 83.6303 0.722211 84.4403 0.333787C85.1319 0.00220617 86.553 0.437985 87.2541 1.01588C90.0441 3.30379 92.7015 5.75276 95.3588 8.19699C95.88 8.71524 96.5033 9.11934 97.1892 9.38356C97.875 9.64779 98.6084 9.76637 99.3426 9.73175C104.217 9.61332 109.101 9.76017 113.975 9.61332C115.214 9.54166 116.4 9.08827 117.371 8.31541C120.161 6.03224 122.7 3.44591 125.5 1.17221C126.295 0.532731 127.811 0.120619 128.687 0.442726C129.412 0.707991 130.109 2.20958 130.109 3.16643C130.232 17.0549 130.241 30.9435 130.26 44.8273C130.26 47.0062 129.246 48.271 127.565 48.1099C125.67 47.9299 124.988 46.6604 124.997 44.8509C125.057 34.4298 125.103 24.0087 125.135 13.5876C125.135 12.0386 125.135 10.4896 125.135 8.27278C123.458 9.69384 122.046 10.6981 120.905 11.9391C118.882 14.1323 116.552 14.9044 113.548 14.7813C108.035 14.5918 102.502 14.8618 96.9694 14.7813C95.8675 14.7173 94.8092 14.3283 93.9283 13.6633C92.0667 12.2707 90.3804 10.646 88.1967 8.74647C88.1351 9.93542 88.0688 10.6412 88.0688 11.3612C88.0688 19.0871 88.0688 26.8129 88.0688 34.5388C88.0356 41.4214 83.5593 46.8546 76.8282 47.9678C72.4371 48.6831 68.6429 46.9873 65.2844 44.2541C64.9149 43.9557 64.7018 43.4678 64.4223 43.8183C61.6276 45.1825 58.9654 47.082 56.0144 47.8067C49.1885 49.4883 40.6006 43.9367 40.4916 35.5193C40.3732 26.3108 40.4585 17.0928 40.449 7.87963L40.4111 4.95697Z" fill="#FAB811"/>
<path d="M106.41 32.9614C109.726 32.9614 111.422 33.9846 111.379 35.9599C111.327 38.1483 108.655 40.6968 106.415 40.6636C104.174 40.6304 101.455 38.0536 101.379 35.9551C101.313 34.0888 103.222 32.9567 106.41 32.9614Z" fill="white"/>
<path d="M55.6401 14.9992C55.1978 15.0183 54.7563 14.9459 54.3432 14.7866C53.9302 14.6272 53.5545 14.3843 53.2397 14.073C52.9249 13.7618 52.6777 13.3888 52.5137 12.9777C52.3496 12.5665 52.2723 12.1258 52.2864 11.6834C52.2997 10.7975 52.6562 9.95145 53.2809 9.32324C53.9055 8.69504 54.7496 8.33374 55.6353 8.31543C56.0762 8.32693 56.5103 8.42628 56.9123 8.60762C57.3143 8.78897 57.6761 9.04869 57.9765 9.37158C58.2769 9.69447 58.5099 10.074 58.6618 10.4881C58.8137 10.9021 58.8815 11.3423 58.8611 11.7828C58.8669 12.2072 58.7875 12.6284 58.6276 13.0215C58.4677 13.4147 58.2305 13.7717 57.9302 14.0716C57.6299 14.3715 57.2725 14.6081 56.8791 14.7674C56.4857 14.9267 56.0644 15.0055 55.6401 14.9992Z" fill="white"/>
<path d="M75.8571 11.7687C75.8596 12.1908 75.7788 12.6093 75.6194 13.0002C75.46 13.3911 75.2252 13.7468 74.9282 14.0468C74.6312 14.3469 74.278 14.5854 73.8888 14.7489C73.4995 14.9123 73.0818 14.9973 72.6597 14.9992C72.2018 15.0167 71.7453 14.939 71.3189 14.7712C70.8925 14.6033 70.5055 14.3489 70.1823 14.024C69.8592 13.6991 69.6069 13.3107 69.4414 12.8834C69.2759 12.4561 69.2008 11.9991 69.2207 11.5413C69.2922 10.6975 69.6679 9.90844 70.278 9.32109C70.888 8.73374 71.6907 8.38812 72.5366 8.34863C73.429 8.36607 74.2785 8.73513 74.9003 9.37557C75.5222 10.016 75.866 10.8761 75.8571 11.7687Z" fill="white"/>
<path d="M97.912 22.024C98.337 22.0177 98.7591 22.0954 99.1541 22.2526C99.549 22.4098 99.9091 22.6434 100.214 22.9399C100.518 23.2365 100.761 23.5903 100.929 23.981C101.096 24.3717 101.185 24.7916 101.19 25.2167C101.178 26.0746 100.83 26.8937 100.222 27.4991C99.6143 28.1044 98.7936 28.4481 97.9356 28.4567C97.5096 28.4592 97.0872 28.3775 96.6928 28.2163C96.2984 28.0551 95.9397 27.8176 95.6374 27.5175C95.335 27.2173 95.0949 26.8604 94.9308 26.4671C94.7668 26.0739 94.682 25.6522 94.6814 25.2261C94.6708 24.8003 94.7474 24.3768 94.9064 23.9817C95.0654 23.5865 95.3034 23.228 95.6059 22.9282C95.9084 22.6283 96.269 22.3934 96.6656 22.2379C97.0621 22.0825 97.4863 22.0097 97.912 22.024Z" fill="white"/>
<path d="M114.898 28.4518C114.059 28.4157 113.265 28.0556 112.686 27.4472C112.106 26.8387 111.784 26.0292 111.788 25.1887C111.793 24.3482 112.123 23.542 112.709 22.9395C113.295 22.337 114.091 21.985 114.931 21.9575C115.771 21.9936 116.564 22.3537 117.144 22.9621C117.724 23.5706 118.046 24.3801 118.041 25.2206C118.037 26.0611 117.707 26.8673 117.121 27.4698C116.535 28.0723 115.738 28.4243 114.898 28.4518Z" fill="white"/>
<path d="M26.1294 71.0032C26.1498 71.8285 25.9167 72.6403 25.4615 73.329C25.0522 73.9423 24.5258 74.4687 23.9125 74.878C23.0151 74.2894 22.0634 73.7881 21.0704 73.3811C19.9419 72.9483 18.7404 72.7376 17.5319 72.7606C14.8793 72.7606 12.8488 73.5785 11.4403 75.2143C10.0319 76.8501 9.32609 79.1475 9.32293 82.1064C9.32293 85.1728 10.0887 87.4875 11.6203 89.0507C13.1519 90.6139 15.2772 91.4034 17.9961 91.4191C19.2177 91.4506 20.4346 91.258 21.5867 90.8507C22.5509 90.4793 23.4906 90.0474 24.4004 89.5576C24.9748 90.0303 25.4402 90.6217 25.7646 91.2913C26.0995 92.0264 26.2615 92.8285 26.2383 93.636C26.2452 94.4039 26.0296 95.1574 25.6178 95.8055C25.0906 96.5534 24.3538 97.1286 23.5004 97.4587C22.6475 97.8078 21.7664 98.0836 20.8667 98.2829C19.5128 98.5849 18.1278 98.7248 16.7409 98.6997C14.5163 98.7172 12.3026 98.3864 10.1803 97.7192C8.22262 97.0967 6.41813 96.0685 4.88448 94.7018C3.30686 93.2869 2.07796 91.5263 1.29392 89.5576C0.38274 87.1783 -0.0549175 84.644 0.00550249 82.097C-0.0376477 79.6689 0.391903 77.2557 1.27024 74.9917C2.04443 73.0314 3.22261 71.256 4.72815 69.7811C6.19878 68.3664 7.9496 67.2755 9.86768 66.579C11.8862 65.8444 14.0198 65.477 16.1677 65.4942C19.3256 65.4942 21.7777 66.0105 23.5241 67.0432C25.2704 68.0758 26.1388 69.3958 26.1294 71.0032Z" fill="white"/>
<path d="M40.6905 71.8843C42.4015 71.8675 44.1082 72.0584 45.7732 72.4527C47.1803 72.7737 48.5131 73.3605 49.7 74.1817C50.769 74.9363 51.6308 75.9479 52.2058 77.1233C52.8162 78.4398 53.116 79.8789 53.0821 81.3296V92.8971C53.1148 93.6959 52.8478 94.4781 52.3337 95.0903C51.8195 95.6702 51.2187 96.1671 50.5526 96.5634C48.3105 97.9024 45.1605 98.5735 41.1026 98.5766C39.4455 98.6005 37.7911 98.4352 36.1715 98.084C34.8355 97.7913 33.561 97.267 32.4057 96.535C31.384 95.8792 30.5473 94.9724 29.9757 93.9013C29.3877 92.7516 29.0947 91.4739 29.123 90.1829C29.123 87.8113 29.8288 85.9876 31.2404 84.7118C32.652 83.436 34.8373 82.6465 37.7962 82.3433L44.5605 81.6233V81.2633C44.5852 80.8142 44.4724 80.3682 44.2371 79.9848C44.0019 79.6014 43.6553 79.2989 43.2436 79.1175C42.043 78.6274 40.7493 78.4075 39.4541 78.4733C38.1798 78.4738 36.9093 78.612 35.6646 78.8854C34.5093 79.1302 33.3776 79.4758 32.2825 79.9181C31.788 79.5497 31.3965 79.0603 31.1457 78.497C30.8379 77.8804 30.6758 77.2014 30.672 76.5122C30.6326 75.7433 30.8621 74.9847 31.3209 74.3664C31.8583 73.7476 32.54 73.2709 33.3057 72.9785C34.4491 72.5661 35.6365 72.2879 36.8441 72.1496C38.1195 71.9813 39.4041 71.8927 40.6905 71.8843ZM41.1026 92.1723C41.7524 92.1682 42.4006 92.108 43.04 91.9924C43.5879 91.9279 44.1202 91.7676 44.6126 91.5187V87.3881L40.8847 87.6628C40.0597 87.6965 39.2518 87.9082 38.5163 88.2834C38.2256 88.4224 37.9814 88.6427 37.8132 88.9176C37.6451 89.1925 37.5602 89.5102 37.5689 89.8323C37.5609 90.1551 37.6293 90.4752 37.7684 90.7666C37.9075 91.058 38.1134 91.3124 38.3694 91.5092C38.9157 91.9545 39.8268 92.1755 41.1026 92.1723Z" fill="white"/>
<path d="M68.0034 98.5245C64.9718 98.5245 62.6396 97.836 61.007 96.4592C59.3743 95.0823 58.5564 92.8449 58.5533 89.747V66.8206C58.9322 66.7163 59.4722 66.6027 60.178 66.4842C60.9214 66.3595 61.6743 66.2993 62.428 66.3042C64.1096 66.3042 65.3318 66.5932 66.0897 67.1806C66.8476 67.7679 67.2265 68.8479 67.2265 70.43V73.2201H73.9908C74.2297 73.6753 74.4279 74.1509 74.5829 74.6411C74.7799 75.2531 74.8758 75.8931 74.8671 76.5359C74.8671 77.7391 74.6018 78.6106 74.0666 79.1412C73.7832 79.4137 73.4471 79.6253 73.0788 79.7629C72.7106 79.9006 72.3181 79.9615 71.9255 79.9417H67.2265V89.1312C67.1938 89.4937 67.2551 89.8585 67.4045 90.1904C67.5538 90.5223 67.7862 90.8101 68.0791 91.026C68.8061 91.4481 69.6417 91.6459 70.4807 91.5944C71.0169 91.5927 71.5522 91.55 72.0818 91.4665C72.5719 91.3946 73.0551 91.2821 73.5266 91.1302C73.8422 91.5189 74.1108 91.9434 74.3271 92.3949C74.5635 92.9233 74.6785 93.4979 74.6634 94.0765C74.6792 94.6867 74.5546 95.2924 74.2992 95.8468C74.0438 96.4012 73.6643 96.8895 73.1902 97.2739C72.2113 98.1108 70.4823 98.5276 68.0034 98.5245Z" fill="white"/>
<path d="M108.84 82.0544C108.891 84.5206 108.471 86.9738 107.604 89.2829C106.839 91.2542 105.628 93.0215 104.065 94.4461C102.474 95.8592 100.599 96.9155 98.5657 97.544C96.2766 98.255 93.8903 98.6035 91.4935 98.5766C90.9062 98.5766 90.2383 98.5766 89.4804 98.5245C88.7225 98.4724 87.9409 98.4203 87.1119 98.3161C86.283 98.2119 85.4919 98.084 84.6866 97.9324C83.9174 97.7893 83.1639 97.5719 82.4366 97.2835C80.5419 96.5635 79.5945 95.3082 79.5945 93.5176V69.407C79.5756 69.1013 79.6183 68.795 79.72 68.5061C79.8217 68.2173 79.9804 67.9518 80.1866 67.7254C80.6523 67.292 81.2091 66.9683 81.8161 66.778C83.3425 66.2891 84.9185 65.9714 86.5151 65.8306C88.1635 65.6743 89.6461 65.5985 90.9535 65.5985C93.423 65.5688 95.8836 65.8992 98.2578 66.579C100.329 67.1702 102.248 68.201 103.885 69.6012C105.484 71.0044 106.732 72.7631 107.528 74.7359C108.442 77.0656 108.887 79.5524 108.84 82.0544ZM99.5462 82.2107C99.5462 79.1128 98.8231 76.7807 97.3767 75.2144C95.9304 73.648 94.0041 72.8586 91.5978 72.8459C91.1241 72.8459 90.6219 72.8459 90.1246 72.898C89.6272 72.9501 89.1156 72.9833 88.5993 73.0496V91.0166C88.9783 91.0876 89.4472 91.1492 90.0204 91.2013C90.5935 91.2534 91.0862 91.2771 91.5693 91.2771C92.6382 91.3189 93.7042 91.1384 94.6997 90.747C95.6953 90.3557 96.5988 89.7619 97.353 89.0034C98.8152 87.5065 99.5462 85.2423 99.5462 82.2107Z" fill="#FAB811"/>
<path d="M139.303 85.2043C139.335 87.1054 139.014 88.9959 138.355 90.7796C137.763 92.3649 136.83 93.8008 135.622 94.9859C134.402 96.1605 132.95 97.0673 131.359 97.6481C129.572 98.295 127.684 98.6159 125.784 98.5954C123.887 98.6224 122 98.3162 120.208 97.6907C118.615 97.129 117.161 96.2307 115.945 95.057C114.734 93.8734 113.799 92.4372 113.207 90.8507C112.546 89.0496 112.225 87.1415 112.26 85.2232C112.233 83.3362 112.567 81.4613 113.245 79.7C113.852 78.1141 114.794 76.6777 116.007 75.489C117.227 74.316 118.679 73.4108 120.27 72.8316C122.039 72.1851 123.91 71.8641 125.793 71.8842C127.677 71.8566 129.55 72.1778 131.316 72.8316C132.904 73.4297 134.355 74.3434 135.58 75.5174C136.788 76.7076 137.73 78.1415 138.341 79.7237C139.006 81.4732 139.332 83.333 139.303 85.2043ZM125.774 78.7479C125.118 78.7209 124.467 78.861 123.88 79.1552C123.293 79.4493 122.791 79.8879 122.421 80.4295C121.625 81.5474 121.228 83.139 121.232 85.2043C121.232 87.3738 121.628 89.0001 122.421 90.0833C122.822 90.5907 123.333 91.0003 123.915 91.2809C124.498 91.5616 125.137 91.706 125.784 91.7033C126.43 91.7006 127.068 91.5507 127.648 91.2651C128.228 90.9795 128.736 90.5657 129.133 90.0549C129.925 88.9559 130.32 87.339 130.317 85.2043C130.317 83.139 129.922 81.5474 129.133 80.4295C128.761 79.8881 128.258 79.4499 127.67 79.1558C127.083 78.8617 126.431 78.7214 125.774 78.7479Z" fill="#FAB811"/>
<path d="M159.075 95.8387C158.332 96.1302 157.563 96.3461 156.777 96.4829C155.848 96.6457 154.906 96.7234 153.963 96.715C152.468 96.7234 150.98 96.5062 149.549 96.0708C148.182 95.6552 146.929 94.9307 145.887 93.9534C144.781 92.8914 143.926 91.5971 143.381 90.1639C142.708 88.3463 142.387 86.4173 142.434 84.4797C142.396 82.6198 142.717 80.77 143.381 79.0323C143.976 77.5345 144.893 76.1858 146.067 75.0817C147.276 73.9832 148.712 73.1648 150.273 72.6848C152.063 72.1302 153.928 71.86 155.801 71.8843C156.752 71.8824 157.702 71.9504 158.643 72.088C159.526 72.2151 160.398 72.4051 161.253 72.6564C161.998 72.8765 162.73 73.1358 163.447 73.4333C164.026 73.6693 164.58 73.9629 165.1 74.3096C165.739 74.7444 166.29 75.2956 166.725 75.9343C167.142 76.6259 167.348 77.4245 167.317 78.2317V97.3877C167.361 99.0237 167.016 100.647 166.313 102.125C165.659 103.435 164.702 104.572 163.522 105.44C162.267 106.351 160.846 107.009 159.34 107.378C157.661 107.8 155.936 108.009 154.205 107.998C152.559 108.018 150.914 107.871 149.298 107.558C148.11 107.351 146.972 106.922 145.944 106.293C145.354 105.922 144.871 105.403 144.544 104.787C144.218 104.171 144.058 103.48 144.082 102.783C144.068 102.033 144.23 101.289 144.556 100.613C144.809 100.053 145.189 99.5585 145.664 99.1687C146.74 99.7496 147.874 100.216 149.047 100.561C150.328 100.944 151.66 101.136 152.997 101.13C154.518 101.193 156.029 100.867 157.388 100.182C157.919 99.8918 158.356 99.4558 158.648 98.9255C158.94 98.3953 159.075 97.7928 159.037 97.1887L159.075 95.8387ZM155.617 90.1544C156.236 90.1641 156.853 90.0859 157.45 89.9223C157.967 89.7739 158.463 89.5573 158.923 89.2781V79.3686C158.545 79.1975 158.155 79.0519 157.758 78.9328C157.245 78.7947 156.715 78.7324 156.185 78.748C155.522 78.7219 154.86 78.8296 154.239 79.0648C153.618 79.3 153.051 79.6579 152.571 80.117C151.642 81.0328 151.178 82.5044 151.178 84.5318C151.178 86.7013 151.6 88.1823 152.443 88.975C153.303 89.7724 154.444 90.198 155.617 90.1592V90.1544Z" fill="#FAB811"/>
</svg>
